<svg width="113" height="25" viewBox="0 0 113 25" fill="none" xmlns="http://www.w3.org/2000/svg">
<path d="M24.5 12.5C24.5 19.129 19.129 24.5 12.5 24.5C5.87097 24.5 0.5 19.129 0.5 12.5C0.5 5.87097 5.87097 0.5 12.5 0.5C19.129 0.5 24.5 5.87097 24.5 12.5Z" fill="#FFDD38"/>
<path d="M19.1292 15.7581C18.9841 14.9839 18.6453 14.3065 18.097 13.742C17.6937 13.3226 17.226 13.0162 16.7099 12.7581C16.6615 12.742 16.6292 12.7097 16.5647 12.6936C16.6131 12.6613 16.6453 12.6291 16.6615 12.5968C16.8228 12.4516 17.0002 12.2904 17.1615 12.1291C17.7744 11.5 18.1937 10.7742 18.3389 9.90326C18.4841 9.06456 18.4195 8.24197 18.1454 7.45165C17.8712 6.6452 17.355 6.01617 16.6292 5.58068C16.1937 5.32262 15.726 5.1452 15.226 5.01617C14.5002 4.83875 13.7421 4.77423 13.0002 4.77423C11.4357 4.77423 9.87116 4.77423 8.30664 4.77423V20.6613C8.96793 21.0968 9.82277 21.4678 10.8873 21.7258C11.0486 21.7581 11.7099 21.8387 11.8712 21.8387V17.6452V9.371C11.8873 9.35488 11.9034 9.35487 11.9034 9.35487C12.3066 9.20971 12.726 9.19358 13.1454 9.20971C13.3066 9.20971 13.726 9.2581 14.0324 9.38713C14.1937 9.46778 14.4034 9.56455 14.597 9.93552C14.855 10.4355 14.8389 11.3549 13.9841 11.6936C13.7905 11.7581 13.2744 11.871 13.0808 11.8871C13.0163 11.8871 12.726 11.9355 12.6615 11.9355V14.2258C12.7099 14.2258 13.7421 14.0484 14.7099 14.5484C15.2583 14.8226 15.4195 15.5323 15.4357 15.6936C15.4518 15.9839 15.4034 16.2097 15.355 16.4194C15.3389 16.5162 15.2744 16.6291 15.1292 16.871C15.0324 17.0162 14.855 17.1775 14.6453 17.2742C14.0002 17.6129 12.8873 17.5807 12.6453 17.6129V21.8549H12.7744C13.1453 21.8549 13.5163 21.8549 13.8873 21.8549C14.2099 21.8549 14.5324 21.8387 14.855 21.8065C15.4195 21.742 15.9518 21.6129 16.4679 21.371C16.5002 21.3549 16.5163 21.3549 16.5486 21.3387C17.7744 20.7581 18.6131 19.8387 19.0002 18.5323C19.2905 17.6129 19.3066 16.6775 19.1292 15.7581Z" fill="black"/>
<path d="M6.91927 4.77423V15.0323C6.88701 15.0484 6.85475 15.0484 6.80636 15.0646C6.6612 15.1129 6.53217 15.1775 6.41927 15.2742C6.30637 15.3549 6.19346 15.4678 6.09669 15.5807C5.91927 15.8065 5.80637 16.0807 5.77411 16.3549C5.74185 16.6129 5.75798 16.871 5.80636 17.0968C5.83862 17.242 5.88701 17.4678 5.9354 17.5968C6.11282 18.1452 6.40314 18.7904 6.91927 19.4355C7.19346 19.7742 7.53217 20.1129 7.9354 20.4194V16.9355C7.85475 16.9839 7.75798 17.0162 7.66121 17.0323C7.33863 17.0645 7.11282 16.871 7.0483 16.6936C6.96766 16.5162 6.98378 16.3871 6.95153 16.3871C6.9354 16.3871 6.9354 16.4033 6.91927 16.4355V16.7742V17.6129C6.90314 17.6129 6.88701 17.5968 6.88701 17.5807C6.77411 17.4516 6.53217 17.2258 6.45153 16.9355C6.40314 16.7904 6.38701 16.6129 6.40314 16.4355C6.41927 16.2581 6.46766 16.0968 6.58056 15.9355C6.62895 15.8549 6.69346 15.7904 6.77411 15.7258C6.8225 15.6936 6.87088 15.6452 6.91927 15.6291C6.95153 15.6129 6.98379 15.5968 7.01605 15.5807C7.19346 15.5 7.40314 15.4839 7.59669 15.5162C7.72572 15.5323 7.83862 15.5807 7.9354 15.6613V4.77423C7.64508 4.77423 7.33862 4.77423 7.0483 4.77423H6.91927Z" fill="black"/>
<path d="M99.36 17.6947C99.36 17.6344 99.36 17.574 99.36 17.5137V17.8758C99.36 17.8154 99.36 17.7551 99.36 17.6947Z" fill="white"/>
<path d="M55.8917 11.4185C55.8917 11.4487 55.8917 11.4789 55.8917 11.4789C55.8917 11.1469 55.9225 10.7849 55.9225 10.4529C55.8917 10.7547 55.8917 11.0564 55.8917 11.4185Z" fill="white"/>
<path d="M28.8955 19.0827C29.0472 19.0827 29.1988 19.0827 29.3808 19.0827V5.74578C29.2292 5.74578 29.0775 5.74578 28.8955 5.74578V19.0827Z" fill="white"/>
<path d="M40.1789 13.591C39.8452 12.8065 39.2385 12.5048 38.5105 12.2332C38.4195 12.203 38.2982 12.1729 38.2072 12.1427C38.2072 12.1427 38.3755 12.1157 38.5105 12.0577C39.0912 11.8085 39.4205 11.3582 39.7542 10.6038C39.9362 10.1814 40.0596 9.75702 40.0879 9.30632C40.1182 8.82353 40.0879 8.34075 39.9362 7.88814C39.809 7.50842 39.5988 7.19923 39.3902 6.92257C39.0565 6.46996 38.5712 6.19839 38.0858 6.0777C37.8128 6.01735 37.5242 5.97062 37.2365 5.95699C35.3255 5.86647 33.4144 5.86647 31.5034 5.80612C30.9877 5.80612 30.4721 5.80612 29.9261 5.80612V19.1431C32.3528 19.1431 34.7491 19.1732 37.1455 19.1129C37.6612 19.1129 38.1162 19.0224 38.5712 18.8715C39.3295 18.5999 39.9362 18.0568 40.3002 17.1516C40.6642 15.9446 40.6642 14.7678 40.1789 13.591ZM33.7785 8.12953C34.8705 7.94849 35.1435 8.1597 35.2041 9.18562C35.2345 9.48736 35.2041 9.7891 35.2041 10.0607C35.1131 10.9961 34.8401 11.2073 33.7785 11.1168V8.12953ZM35.4468 15.492C35.4165 16.699 35.0525 16.9705 33.7785 16.7593V13.5005C35.0221 13.2893 35.4165 13.5609 35.4468 14.7678C35.4468 14.979 35.4468 15.2204 35.4468 15.492Z" fill="white"/>
<path d="M66.8134 7.17208C66.4346 6.4825 65.9987 6.28231 65.1493 6.01075C63.8753 5.61848 62.747 5.5477 61.473 5.5477C56.1039 5.48735 55.8006 6.76299 55.8006 9.65137C55.8006 10.7103 55.8006 11.7232 55.8006 12.8498C55.8006 14.2982 55.8309 15.7465 55.9523 17.1949C55.9826 17.5872 56.2556 18.0699 56.5589 18.3113C58.2273 19.6692 60.1601 19.7175 62.0493 18.9752C62.3502 18.8569 62.6257 18.6432 62.838 18.5226V19.1562H64.2334C65.2041 19.1864 66.1444 19.1562 67.1151 19.1562V12.9102C67.1151 12.3539 66.4756 11.7914 65.9624 11.7937H61.5943V14.1473H62.4082C62.4082 14.8413 62.4133 15.5353 62.4133 16.1991C62.4133 16.8328 62.0493 17.0742 61.4427 17.0742C60.836 17.044 60.6237 16.7121 60.6237 16.1388C60.654 13.6645 60.654 11.1902 60.654 8.71597C60.654 8.08232 61.0483 7.93145 61.5337 7.93145C62.0493 7.93145 62.4133 8.14267 62.383 8.74615C62.3527 9.28928 62.383 9.83242 62.383 10.3755H64.385C65.5963 10.3755 67.0907 10.4448 67.0847 11.3713V10.3755C67.0847 10.3755 67.0966 8.95779 67.0907 8.263C67.086 7.71754 67.0257 7.55841 66.8134 7.17208Z" fill="white"/>
<path d="M112.282 13.1988V12.8367C112.282 12.8367 112.282 12.8367 112.282 12.8065C112.282 12.9574 112.282 13.0781 112.282 13.1988Z" fill="white"/>
<path d="M112.248 11.01C112.066 9.74269 111.156 8.95817 109.882 8.65643C108.031 8.23399 106.151 8.23398 104.3 8.53572C103.451 8.68659 102.723 8.89781 102.207 9.32025C101.843 9.62199 101.418 10.1651 101.358 11.0402V16.6526C101.418 17.588 101.995 18.1613 102.783 18.5535C105.028 19.6398 107.364 19.67 109.73 19.0363C111.398 18.5837 112.126 17.7992 112.217 16.5017C112.217 16.5017 112.217 16.5017 112.217 16.4715C112.217 16.3496 112.288 13.2939 112.248 14.2688C112.217 15.1438 110.155 15.2042 110.155 15.2042H107.698L107.637 16.7431V16.7733C107.576 17.1655 107.243 17.4673 106.818 17.4673C106.393 17.4673 106.029 17.1353 105.999 16.7129V16.6224C105.999 15.8982 105.999 15.174 105.999 14.3895H110.731C110.761 14.3895 110.792 14.3895 110.852 14.3895C111.55 14.3895 112.248 13.7175 112.258 13.2486C112.258 13.2184 112.258 13.1167 112.258 13.1167C112.258 12.5902 112.278 12.0627 112.278 11.5357C112.278 11.3547 112.278 11.191 112.248 11.01ZM107.698 12.4282H106.06C106.06 12.0057 106.06 11.6135 106.06 11.2212C106.06 10.6664 106.456 10.1721 107.011 10.1721C107.565 10.1721 107.698 10.7686 107.698 11.2514C107.698 11.6135 107.698 12.0057 107.698 12.4282Z" fill="white"/>
<path d="M99.3601 10.3926C99.3601 9.60806 98.8747 9.18562 98.2984 8.94423C96.448 8.15971 94.6583 8.25023 92.99 9.54771C91.0486 8.09936 89.0466 8.09935 86.9839 9.42701C86.9839 9.13242 86.9839 8.96725 86.9839 8.67266H83.0709V19.0525H86.9536V18.268C86.9536 16.1257 86.9232 13.9833 86.9839 11.8711C86.9926 11.5698 86.9973 11.3717 87.2955 11.1469C87.5034 10.9903 87.8825 10.9903 88.1597 11.1469C88.4509 11.3115 88.4399 11.7504 88.4399 12.0823C88.4703 14.1643 88.4399 16.2765 88.4399 18.3585V19.0525H93.1417C93.1417 16.8498 93.1417 14.7376 93.1417 12.5953C93.1417 12.203 93.1417 11.8108 93.2023 11.4487C93.3237 10.9055 93.9 10.6943 94.2943 11.0866C94.5067 11.2978 94.628 11.6599 94.628 11.9616C94.6583 14.104 94.6583 16.2464 94.6583 18.3585V19.0827H97.9041C98.6321 19.0827 99.2084 18.5396 99.2994 17.8456V17.4835C99.3297 15.1299 99.3297 12.7763 99.3601 10.3926Z" fill="white"/>
<path d="M82.7371 8.70284H82.3731V19.0827H82.7371V8.70284Z" fill="white"/>
<path d="M80.2194 10.8754C80.189 10.1512 79.8857 9.42702 79.0667 9.0951C76.8846 8.21076 73.9706 8.18988 71.4226 8.79336C70.5429 9.00458 69.9969 9.42701 69.7239 10.0305C69.2897 10.9903 69.2689 13.4402 69.2689 13.4402C69.2689 13.1384 69.6851 12.8077 70.1401 12.6266C70.1401 12.6266 72.6351 11.5357 73.9403 11.4789V10.9357C73.9403 10.4529 74.274 10.0908 74.6986 10.0908C75.1233 10.0908 75.457 10.4831 75.457 10.9357V11.1168C75.457 11.2073 75.457 11.2978 75.457 11.3883C75.4266 11.7806 75.2143 11.9918 74.638 12.1729C74.3953 12.2332 74.1526 12.3237 73.9403 12.3841C72.9696 12.6858 72.0293 12.9876 71.0586 13.3195C69.6632 13.8023 69.2689 14.3454 69.2689 15.8239C69.2689 16.186 69.2689 16.5481 69.2992 16.9102C69.3599 18.2982 69.8452 18.8413 71.2406 19.0827C72.8558 19.3621 74.3346 19.4146 75.5176 18.3284V19.0526H76.7613C77.914 19.0827 79.0667 19.0526 80.2497 19.0526C80.2497 16.2765 80.3104 13.591 80.2194 10.8754ZM75.4873 14.8282C75.4873 15.1299 75.4873 15.4317 75.4873 15.7032V16.5783C75.4873 17.0611 75.1536 17.4231 74.729 17.4231C74.3043 17.4231 73.9706 17.0309 73.9706 16.5783V15.673C73.9706 15.2808 74.0313 14.9187 74.274 14.6773C74.6013 14.3517 75.0747 14.0376 75.4873 13.8324C75.457 14.1643 75.4873 14.8282 75.4873 14.8282Z" fill="white"/>
<path d="M42.7573 19.0827C42.9089 19.0827 43.0606 19.0827 43.2426 19.0827V5.74578C43.0909 5.74578 42.9393 5.74578 42.7573 5.74578V19.0827Z" fill="white"/>
<path d="M54.0414 13.591C53.7078 12.8065 53.1011 12.5048 52.3731 12.2332C52.2821 12.203 52.1607 12.1729 52.0697 12.1427L52.3731 12.0386C53.3801 11.6288 53.8868 10.3189 53.9504 9.30632C53.9808 8.82353 53.9504 8.34075 53.7988 7.88814C53.5162 7.04478 52.8346 6.29809 51.9484 6.0777C51.6754 6.01735 51.3721 5.95699 51.0991 5.95699C49.188 5.86647 47.277 5.86647 45.366 5.80612C44.8503 5.80612 44.3346 5.80612 43.7886 5.80612V19.1431C46.2153 19.1431 48.6117 19.1732 51.0081 19.1129C51.5237 19.1129 51.9787 19.0224 52.4338 18.8715C53.1921 18.5999 53.7988 18.0568 54.1628 17.1516C54.5268 15.9446 54.5268 14.7678 54.0414 13.591ZM47.641 8.12953C48.733 7.94849 49.006 8.1597 49.0667 9.18562C49.097 9.48736 49.0667 9.7891 49.0667 10.0607C48.9757 10.9961 48.7027 11.2073 47.641 11.1168V8.12953ZM49.3094 15.4618C49.279 16.6688 48.915 16.9404 47.641 16.7291V13.4703C48.8847 13.2591 49.279 13.5307 49.3094 14.7377C49.3094 14.979 49.3094 15.2204 49.3094 15.4618Z" fill="white"/>
</svg>
